<svg xmlns="http://www.w3.org/2000/svg"><defs><linearGradient id="serviceGradient" x1="0" y1="0" x2="1" y2="1"><stop offset="0" stop-color="#19C5FF"/><stop offset=".52" stop-color="#8A4DFF"/><stop offset="1" stop-color="#F42C8A"/></linearGradient><linearGradient id="playA" x1="0" y1="0" x2="1" y2="1"><stop offset="0" stop-color="#00D37F"/><stop offset="1" stop-color="#00A8F0"/></linearGradient></defs><symbol id="mobile" viewBox="0 0 64 64"><rect x="18" y="6" width="28" height="52" rx="7" fill="none" stroke="url(#serviceGradient)" stroke-width="4"/><path d="M27 12h10M29 51h6" stroke="url(#serviceGradient)" stroke-width="4" stroke-linecap="round"/><path d="M24 20h16v23H24z" fill="url(#serviceGradient)" opacity=".2"/></symbol><symbol id="web" viewBox="0 0 64 64"><circle cx="32" cy="32" r="25" fill="none" stroke="url(#serviceGradient)" stroke-width="4"/><path d="M7 32h50M32 7c8 8 12 16 12 25S40 49 32 57M32 7c-8 8-12 16-12 25s4 17 12 25" fill="none" stroke="url(#serviceGradient)" stroke-width="3"/></symbol><symbol id="systems" viewBox="0 0 64 64"><ellipse cx="32" cy="14" rx="22" ry="8" fill="url(#serviceGradient)" opacity=".25" stroke="url(#serviceGradient)" stroke-width="3"/><path d="M10 14v14c0 4 10 8 22 8s22-4 22-8V14M10 28v14c0 4 10 8 22 8s22-4 22-8V28" fill="none" stroke="url(#serviceGradient)" stroke-width="3"/><path d="M16 23h4M16 37h4" stroke="#19C5FF" stroke-width="3" stroke-linecap="round"/></symbol><symbol id="code" viewBox="0 0 64 64"><path d="M24 16 8 32l16 16M40 16l16 16-16 16M37 10 27 54" fill="none" stroke="url(#serviceGradient)" stroke-width="5" stroke-linecap="round" stroke-linejoin="round"/></symbol><symbol id="ai" viewBox="0 0 64 64"><path d="M24 12a9 9 0 0 0-9 9v5a9 9 0 0 0-4 16 9 9 0 0 0 13 10M40 12a9 9 0 0 1 9 9v5a9 9 0 0 1 4 16 9 9 0 0 1-13 10" fill="none" stroke="url(#serviceGradient)" stroke-width="4" stroke-linecap="round"/><path d="M24 12v40M40 12v40M24 24h7M33 39h7M29 31h6" stroke="url(#serviceGradient)" stroke-width="4" stroke-linecap="round"/><circle cx="31" cy="24" r="3" fill="#19C5FF"/><circle cx="33" cy="39" r="3" fill="#F42C8A"/></symbol><symbol id="nfc" viewBox="0 0 64 64"><path d="M21 22a14 14 0 0 1 0 20M14 15a24 24 0 0 1 0 34M43 22a14 14 0 0 0 0 20M50 15a24 24 0 0 0 0 34" fill="none" stroke="url(#serviceGradient)" stroke-width="4" stroke-linecap="round"/><circle cx="32" cy="32" r="5" fill="url(#serviceGradient)"/></symbol><symbol id="apple" viewBox="0 0 64 64"><path fill="currentColor" d="M45.1 34.3c.1 9.1 8 12.2 8.1 12.2-.1.2-1.3 4.4-4.2 8.7-2.5 3.7-5.1 7.4-9.2 7.5-4 .1-5.3-2.4-9.9-2.4s-6 2.3-9.8 2.5c-3.9.1-6.9-3.9-9.5-7.6C5.5 47.7 1.6 34 6.9 24.8c2.6-4.6 7.4-7.5 12.5-7.6 3.9-.1 7.6 2.6 9.9 2.6s6.8-3.2 11.4-2.7c1.9.1 7.4.8 10.9 5.9-.3.2-6.5 3.8-6.5 11.3ZM37.7 12.2c2.1-2.6 3.6-6.2 3.2-9.8-3.1.1-6.9 2.1-9.2 4.7-2 2.3-3.8 6-3.3 9.5 3.5.3 7-1.8 9.3-4.4Z"/></symbol><symbol id="google-play" viewBox="0 0 64 64"><path fill="url(#playA)" d="M9 7.5c-1.5 1.7-2.3 4-2.3 6.7v35.6c0 2.7.8 5 2.3 6.7l.7.6L36 32 9.7 6.9Z"/><path fill="#FFD23F" d="m44.8 40.4-8.8-8.4 8.8-8.4 10 5.8c2.9 1.6 2.9 3.8 0 5.5Z"/><path fill="#FF4B55" d="M44.8 40.4 36 32 9.7 57.1c2.4 2.5 5.4 2.8 8.8.9Z"/><path fill="#38A5FF" d="M44.8 23.6 18.5 6c-3.4-1.9-6.4-1.6-8.8.9L36 32Z"/></symbol></svg>