<svg xmlns="http://www.w3.org/2000/svg" viewBox="0 0 240 240" role="img" aria-labelledby="title desc"><title id="title">Zivi Dynamics</title><desc id="desc">Isotipo vectorial de cinta tecnológica en forma de Z</desc><defs><linearGradient id="blue" x1="0" y1="0" x2="1" y2="1"><stop offset="0" stop-color="#00E5FF"/><stop offset=".48" stop-color="#00B8F4"/><stop offset="1" stop-color="#0456C7"/></linearGradient><linearGradient id="gold" x1="0" y1="0" x2="1" y2="1"><stop offset="0" stop-color="#FFE36A"/><stop offset=".48" stop-color="#FFB51B"/><stop offset="1" stop-color="#F07A00"/></linearGradient><linearGradient id="pink" x1="0" y1="0" x2="1" y2="1"><stop offset="0" stop-color="#FF4CB0"/><stop offset=".52" stop-color="#F50078"/><stop offset="1" stop-color="#7E0A72"/></linearGradient><filter id="shadow" x="-30%" y="-30%" width="160%" height="160%"><feDropShadow dx="0" dy="10" stdDeviation="9" flood-color="#000" flood-opacity=".38"/></filter></defs><g filter="url(#shadow)"><path fill="url(#blue)" d="M24 46C67 79 112 18 191 48c22 8 35 23 38 38-19-14-36-9-55 0-43 21-82 23-118 10C40 90 29 72 24 46Z"/><path fill="url(#gold)" d="M226 77c-11 31-39 59-68 82l-66 50c-21 16-48 12-63-5 18-1 31-10 46-23l94-85c23-21 40-27 57-19Z"/><path fill="url(#pink)" d="M33 192c30 18 62-8 101-8 38 0 69 15 91 40-31-13-61-8-90 6-37 18-73 9-96-14-8-8-10-17-6-24Z"/><path fill="none" stroke="#FFFFFF" stroke-opacity=".45" stroke-width="3" stroke-linecap="round" d="M40 52c47 25 88-18 145 0"/><path fill="none" stroke="#FFFFFF" stroke-opacity=".34" stroke-width="3" stroke-linecap="round" d="M207 88c-22 32-59 65-108 101"/><path fill="none" stroke="#FFFFFF" stroke-opacity=".32" stroke-width="3" stroke-linecap="round" d="M46 197c34 12 61-5 88-5"/></g></svg>