<svg xmlns="http://www.w3.org/2000/svg" viewBox="0 0 1200 780"><defs><linearGradient id="a" x1="0" y1="0" x2="1" y2="1"><stop stop-color="#18c8ff"/><stop offset=".5" stop-color="#8e5bff"/><stop offset="1" stop-color="#ff2e92"/></linearGradient><radialGradient id="b"><stop stop-color="#18c8ff" stop-opacity=".2"/><stop offset="1" stop-color="#18c8ff" stop-opacity="0"/></radialGradient></defs><rect width="1200" height="780" rx="42" fill="#07111f"/><circle cx="820" cy="210" r="360" fill="url(#b)"/><g opacity=".08" stroke="#7fe1ff"><path d="M0 90h1200M0 170h1200M0 250h1200M0 330h1200M0 410h1200M0 490h1200M0 570h1200M0 650h1200M0 730h1200"/><path d="M90 0v780M170 0v780M250 0v780M330 0v780M410 0v780M490 0v780M570 0v780M650 0v780M730 0v780M810 0v780M890 0v780M970 0v780M1050 0v780M1130 0v780"/></g><text x="82" y="105" fill="#18c8ff" font-family="Arial" font-size="23" font-weight="700" letter-spacing="5">TECNOLOGÍA NFC</text><text x="82" y="175" fill="#fff" font-family="Arial" font-size="61" font-weight="800">Conecta objetos físicos</text><text x="82" y="245" fill="#fff" font-family="Arial" font-size="61" font-weight="800">con experiencias digitales.</text><text x="82" y="302" fill="#afc1da" font-family="Arial" font-size="27">Tarjetas, llaveros, stickers y habladores para</text><text x="82" y="340" fill="#afc1da" font-family="Arial" font-size="27">catálogos, perfiles, reseñas, Wi‑Fi y servicios.</text><g transform="translate(680 115)"><rect width="265" height="430" rx="38" fill="#020812" stroke="#35415d"/><rect x="22" y="46" width="221" height="338" rx="28" fill="#0c172a" stroke="url(#a)" stroke-opacity=".4"/><circle cx="132" cy="178" r="58" fill="none" stroke="url(#a)" stroke-width="9"/><circle cx="132" cy="178" r="32" fill="none" stroke="#18c8ff" stroke-width="7"/><circle cx="132" cy="178" r="9" fill="#ff2e92"/><text x="49" y="288" fill="#fff" font-family="Arial" font-size="20" font-weight="700">Experiencia detectada</text><text x="49" y="322" fill="#afc1da" font-family="Arial" font-size="15">Catálogo · WhatsApp · Perfil</text><rect x="49" y="344" width="130" height="30" rx="15" fill="#103a30"/><text x="78" y="365" fill="#a8f4c6" font-family="Arial" font-size="13" font-weight="700">ABRIR</text></g><g transform="translate(120 470)"><rect width="230" height="140" rx="22" fill="#0d1830" stroke="url(#a)" stroke-width="3"/><text x="25" y="58" fill="#fff" font-family="Arial" font-size="28" font-weight="800">Tarjeta NFC</text><text x="25" y="95" fill="#afc1da" font-family="Arial" font-size="17">Presentación inteligente</text><circle cx="188" cy="72" r="23" fill="none" stroke="#18c8ff" stroke-width="5"/></g><g transform="translate(390 490)"><rect width="120" height="120" rx="35" fill="#0d1830" stroke="url(#a)" stroke-width="3"/><circle cx="60" cy="66" r="29" fill="none" stroke="#18c8ff" stroke-width="7"/><circle cx="60" cy="22" r="18" fill="none" stroke="#c8d2e6" stroke-width="7"/></g><g transform="translate(550 505)"><rect width="150" height="92" rx="20" fill="#0d1830" stroke="url(#a)" stroke-width="3"/><text x="25" y="56" fill="#fff" font-family="Arial" font-size="29" font-weight="800">NFC</text><path d="M104 34a24 24 0 0 0-24 24M115 23a35 35 0 0 0-35 35" fill="none" stroke="#18c8ff" stroke-width="5" stroke-linecap="round"/></g><g transform="translate(890 455)"><path d="M0 210 72 0h92l72 210z" fill="#0d1830" stroke="url(#a)" stroke-width="3"/><rect x="52" y="55" width="132" height="78" rx="17" fill="#131f37"/><text x="72" y="105" fill="#fff" font-family="Arial" font-size="25" font-weight="800">Toca aquí</text><text x="42" y="180" fill="#afc1da" font-family="Arial" font-size="17">Menú · Wi‑Fi · Reseñas</text></g></svg>